#!OML:ASF F:\VICON\USERDATA\INSTALL\rory3\rory3.ASF
:FULLY-SPECIFIED
:DEGREES
2323
root 0.306997 17.4555 -0.251256 2.43955 0.927735 -1.4649
lowerback -1.87783 0.21213 0.0352442
upperback -4.11382 0.30125 0.684234
thorax -3.17594 0.161801 0.680563
lowerneck -15.9765 -10.7726 -13.5256
upperneck 33.5462 -16.1903 10.9641
head 17.0374 -7.14043 3.81717
rclavicle 2.1183e-015 -7.78987e-015
rhumerus 9.44964 44.2979 -49.6815
rradius 100.167
rwrist -40.1145
rhand 0.37479 3.28154
rfingers 7.12502
rthumb 25.9493 -24.9671
lclavicle 2.1183e-015 -7.78987e-015
lhumerus 9.66153 -45.965 61.0683
lradius 98.8022
lwrist 53.8276
lhand -5.48982 35.2594
lfingers 7.12502
lthumb 20.3227 64.216
rfemur 0 0 0
rtibia 0
rfoot 0 0
rtoes 0
lfemur -3.80457 -17.1303 -18.0657
ltibia 16.0793
lfoot -14.2386 13.7032
ltoes -15.9589
2324
root 0.307718 17.4545 -0.252365 2.40129 0.924669 -1.42663
lowerback -1.64296 0.207598 -0.0251492
upperback -4.2369 0.297182 0.699338
thorax -3.43636 0.162555 0.729053
lowerneck -15.8641 -10.7526 -13.5856
upperneck 33.5443 -16.1571 10.9692
head 17.0108 -7.13962 3.84212
rclavicle 1.71685e-015 1.09021e-015
rhumerus 6.49337 45.3544 -52.7497
rradius 98.8314
rwrist -38.354
rhand 0.618817 3.5525
rfingers 7.12502
rthumb 26.183 -24.6617
lclavicle 1.71685e-015 1.09021e-015
lhumerus 6.40178 -46.5936 64.4703
lradius 97.0685
lwrist 51.2458
lhand -5.34413 35.4148
lfingers 7.12502
lthumb 20.4627 64.3565
rfemur 0 0 0
rtibia 0
rfoot 0 0
rtoes 0
lfemur -3.74667 -17.1216 -18.1201
ltibia 16.06
lfoot -14.2778 13.7504
ltoes -16.0365
2325
root 0.306569 17.4534 -0.253558 2.34293 1.00126 -1.46053
lowerback -1.50377 0.183807 -0.0995962
upperback -4.26338 0.268102 0.7851
thorax -3.54292 0.152359 0.858988
lowerneck -15.8464 -10.7686 -13.6927
upperneck 33.5086 -16.1543 10.9959
head 17.0039 -7.14959 3.87162
rclavicle 9.97185e-015 8.58501e-015
rhumerus 3.61352 46.2097 -55.6905
rradius 97.5621
rwrist -36.6998
rhand 0.743167 3.35505
rfingers 7.12502
rthumb 26.302 -24.8415
lclavicle 9.97185e-015 8.58501e-015
lhumerus 3.15699 -46.9656 67.983
lradius 95.1083
lwrist 48.5827
lhand -5.00605 35.0428
lfingers 7.12502
lthumb 20.7876 63.9493
rfemur 0 0 0
rtibia 0
rfoot 0 0
rtoes 0
lfemur -3.69453 -17.1383 -18.0914
ltibia 16.0701
lfoot -14.2703 13.7837
ltoes -16.5229
2326
root 0.306133 17.4535 -0.254863 2.34984 1.03259 -1.46211
lowerback -1.53267 0.169303 -0.0580013
upperback -4.23124 0.24812 0.7648
thorax -3.49258 0.140447 0.815191
lowerneck -15.9249 -10.7913 -13.7288
upperneck 33.4541 -16.1903 11.0728
head 17.0164 -7.15605 3.89817
rclavicle -1.00324e-015 4.75841e-015
rhumerus 0.743687 46.8084 -58.7898
rradius 96.1145
rwrist -34.8789
rhand 0.867766 3.06622
rfingers 7.12502
rthumb 26.4213 -25.1125
lclavicle -1.00324e-015 4.75841e-015
lhumerus 0.262361 -47.0954 71.1268
lradius 92.989
lwrist 45.8347
lhand -4.91029 34.6908
lfingers 7.12502
lthumb 20.8796 63.5872
rfemur 0 0 0
rtibia 0
rfoot 0 0
rtoes 0
lfemur -3.7336 -17.1468 -18.0831
ltibia 16.1005
lfoot -14.2582 13.6925
ltoes -16.3944
2327
root 0.306613 17.4538 -0.255904 2.35607 0.999272 -1.53644
lowerback -1.54619 0.187331 0.093041
upperback -4.21707 0.272241 0.738754
thorax -3.46968 0.146988 0.703456
lowerneck -15.9455 -10.8107 -13.7926
upperneck 33.374 -16.2489 11.2307
head 17.0205 -7.16846 3.96225
rclavicle 1.36224e-015 8.43068e-015
rhumerus -2.24457 47.2712 -61.9959
rradius 94.4038
rwrist -32.7981
rhand 0.877954 3.09386
rfingers 7.12502
rthumb 26.431 -25.0834
lclavicle 1.36224e-015 8.43068e-015
lhumerus -2.46098 -47.2044 74.0756
lradius 90.7795
lwrist 43.061
lhand -5.29209 34.3367
lfingers 7.12502
lthumb 20.5128 63.273
rfemur 0 0 0
rtibia 0
rfoot 0 0
rtoes 0
lfemur -3.76121 -17.128 -18.0038
ltibia 16.1487
lfoot -14.2915 13.6379
ltoes -16.0727
